<svg xmlns="http://www.w3.org/2000/svg" width="780" height="86" viewBox="0 0 780 86"><path fill="#f5a623" d="M56.50 66.80L56.50 66.80Q55.90 67 54.90 67.25Q53.90 67.50 52.70 67.50L52.70 67.50Q48.30 67.50 48.30 63.80L48.30 63.80L48.30 39.60L17.10 39.60L17.10 66.80Q16.50 67 15.50 67.25Q14.50 67.50 13.30 67.50L13.30 67.50Q8.90 67.50 8.90 63.80L8.90 63.80L8.90 6.40Q9.40 6.20 10.45 5.95Q11.50 5.70 12.70 5.70L12.70 5.70Q17.10 5.70 17.10 9.40L17.10 9.40L17.10 32.80L48.30 32.80L48.30 6.40Q48.80 6.20 49.85 5.95Q50.90 5.70 52.10 5.70L52.10 5.70Q56.50 5.70 56.50 9.40L56.50 9.40L56.50 66.80ZM109.40 44.30L78.60 48.60Q81.30 61.70 95.80 61.70L95.80 61.70Q100 61.70 103.40 60.30Q106.80 58.90 108.80 57.30L108.80 57.30Q111.20 58.70 111.20 61.10L111.20 61.10Q111.20 62.50 109.95 63.80Q108.70 65.10 106.55 66.10Q104.40 67.10 101.55 67.70Q98.70 68.30 95.40 68.30L95.40 68.30Q83.80 68.30 77.05 62Q70.30 55.70 70.30 43.60L70.30 43.60Q70.30 37.90 71.95 33.45Q73.60 29 76.55 25.90Q79.50 22.80 83.60 21.15Q87.70 19.50 92.50 19.50L92.50 19.50Q97 19.50 100.80 21Q104.60 22.50 107.35 25.25Q110.10 28 111.65 31.75Q113.20 35.50 113.20 40L113.20 40Q113.20 42.20 112.20 43.15Q111.20 44.10 109.40 44.30L109.40 44.30ZM92.40 26L92.40 26Q86.30 26 82.30 30.25Q78.30 34.50 78.10 42.40L78.10 42.40L105.60 38.60Q105.10 33.10 101.75 29.55Q98.40 26 92.40 26ZM133.60 66.80L133.60 66.80Q133.10 67 132.10 67.25Q131.10 67.50 129.90 67.50L129.90 67.50Q125.60 67.50 125.60 63.90L125.60 63.90L125.60 2.20Q126.10 2 127.15 1.75Q128.20 1.50 129.30 1.50L129.30 1.50Q133.60 1.50 133.60 5.10L133.60 5.10L133.60 66.80ZM169.10 68.30L169.10 68.30Q165.60 68.30 162.50 67.50Q159.40 66.70 157.40 65.60L157.40 65.60L157.40 85Q156.90 85.20 155.90 85.45Q154.90 85.70 153.70 85.70L153.70 85.70Q149.40 85.70 149.40 82L149.40 82L149.40 29.20Q149.40 27.20 150.10 26Q150.80 24.80 153 23.50L153 23.50Q155.70 22 159.45 20.75Q163.20 19.50 168 19.50L168 19.50Q172.90 19.50 177.25 20.90Q181.60 22.30 184.75 25.25Q187.90 28.20 189.75 32.80Q191.60 37.40 191.60 43.80L191.60 43.80Q191.60 50 189.95 54.60Q188.30 59.20 185.30 62.25Q182.30 65.30 178.15 66.80Q174 68.30 169.10 68.30ZM168 61.70L168 61.70Q175 61.70 179.25 57.45Q183.50 53.20 183.50 43.80L183.50 43.80Q183.50 38.90 182.25 35.50Q181 32.10 178.85 30Q176.70 27.90 173.90 27Q171.10 26.10 168 26.10L168 26.10Q164.40 26.10 161.90 27Q159.40 27.90 157.40 29L157.40 29L157.40 58.50Q159.30 59.90 161.90 60.80Q164.50 61.70 168 61.70ZM212.10 17.10L212.10 23.40L231.90 23.40Q232.20 23.90 232.50 24.70Q232.80 25.50 232.80 26.60L232.80 26.60Q232.80 29.90 229.70 29.90L229.70 29.90L212.20 29.90L212.20 66.80Q211.70 67 210.70 67.25Q209.70 67.50 208.50 67.50L208.50 67.50Q204.20 67.50 204.20 63.90L204.20 63.90L204.20 16.70Q204.20 7.90 208.95 3.95Q213.70 0 222.20 0L222.20 0Q227.90 0 231.15 1.50Q234.40 3 234.40 5.20L234.40 5.20Q234.40 7.40 232.70 8.90L232.70 8.90Q230.90 7.90 228.20 7.25Q225.50 6.60 223 6.60L223 6.60Q216.90 6.60 214.50 9.10Q212.10 11.60 212.10 17.10L212.10 17.10ZM243.90 50.10L243.90 21Q244.40 20.80 245.45 20.55Q246.50 20.30 247.70 20.30L247.70 20.30Q251.90 20.30 251.90 24L251.90 24L251.90 49.70Q251.90 56.20 255.30 58.95Q258.70 61.70 264.70 61.70L264.70 61.70Q268.70 61.70 271.50 60.85Q274.30 60 275.90 59.10L275.90 59.10L275.90 21Q276.40 20.80 277.45 20.55Q278.50 20.30 279.60 20.30L279.60 20.30Q283.90 20.30 283.90 24L283.90 24L283.90 58.80Q283.90 60.90 283.35 62.15Q282.80 63.40 280.70 64.60L280.70 64.60Q278.40 65.90 274.35 67.10Q270.30 68.30 264.60 68.30L264.60 68.30Q254.60 68.30 249.25 63.90Q243.90 59.50 243.90 50.10L243.90 50.10ZM307.70 66.80L307.70 66.80Q307.20 67 306.20 67.25Q305.20 67.50 304 67.50L304 67.50Q299.70 67.50 299.70 63.90L299.70 63.90L299.70 2.20Q300.20 2 301.25 1.75Q302.30 1.50 303.40 1.50L303.40 1.50Q307.70 1.50 307.70 5.10L307.70 5.10L307.70 66.80ZM353.10 44L353.10 66.80Q352.50 67 351.50 67.25Q350.50 67.50 349.30 67.50L349.30 67.50Q344.90 67.50 344.90 63.80L344.90 63.80L344.90 10.60Q344.90 9 345.70 8.15Q346.50 7.30 348.20 6.80L348.20 6.80Q351.10 5.90 355.35 5.50Q359.60 5.10 363.60 5.10L363.60 5.10Q376.20 5.10 382.35 10.15Q388.50 15.20 388.50 24.50L388.50 24.50Q388.50 31.40 384.95 36.10Q381.40 40.80 374.20 42.80L374.20 42.80Q376.70 46 379.20 49.20Q381.70 52.40 383.95 55.25Q386.20 58.10 387.95 60.40Q389.70 62.70 390.70 64L390.70 64Q390.30 65.70 388.95 66.70Q387.60 67.70 386.20 67.70L386.20 67.70Q384.50 67.70 383.40 66.90Q382.30 66.10 381.10 64.40L381.10 64.40L366.50 44L353.10 44ZM353 37.20L364.50 37.20Q371.90 37.20 376.10 34Q380.30 30.80 380.30 24.50L380.30 24.50Q380.30 18.20 375.90 15.05Q371.50 11.90 363.30 11.90L363.30 11.90Q360.60 11.90 357.85 12.15Q355.10 12.40 353 12.80L353 12.80L353 37.20ZM438.90 44.30L408.10 48.60Q410.80 61.70 425.30 61.70L425.30 61.70Q429.50 61.70 432.90 60.30Q436.30 58.90 438.30 57.30L438.30 57.30Q440.70 58.70 440.70 61.10L440.70 61.10Q440.70 62.50 439.45 63.80Q438.20 65.10 436.05 66.10Q433.90 67.10 431.05 67.70Q428.20 68.30 424.90 68.30L424.90 68.30Q413.30 68.30 406.55 62Q399.80 55.70 399.80 43.60L399.80 43.60Q399.80 37.90 401.45 33.45Q403.10 29 406.05 25.90Q409 22.80 413.10 21.15Q417.20 19.50 422 19.50L422 19.50Q426.50 19.50 430.30 21Q434.10 22.50 436.85 25.25Q439.60 28 441.15 31.75Q442.70 35.50 442.70 40L442.70 40Q442.70 42.20 441.70 43.15Q440.70 44.10 438.90 44.30L438.90 44.30ZM421.90 26L421.90 26Q415.80 26 411.80 30.25Q407.80 34.50 407.60 42.40L407.60 42.40L435.10 38.60Q434.60 33.10 431.25 29.55Q427.90 26 421.90 26ZM486.90 54.70L486.90 54.70Q486.90 61.10 482.20 64.70Q477.50 68.30 468.60 68.30L468.60 68.30Q464.80 68.30 461.60 67.65Q458.40 67 456.15 65.95Q453.90 64.90 452.65 63.55Q451.40 62.20 451.40 60.80L451.40 60.80Q451.40 59.60 452.05 58.50Q452.70 57.40 454.00 56.60L454.00 56.60Q456.70 58.60 460.30 60.15Q463.90 61.70 468.50 61.70L468.50 61.70Q478.90 61.70 478.90 54.70L478.90 54.70Q478.90 49 472.00 47.30L472.00 47.30L463.70 45.10Q457.60 43.50 454.80 40.45Q452.00 37.40 452.00 32.60L452.00 32.60Q452.00 30 453.05 27.60Q454.10 25.20 456.30 23.40Q458.50 21.60 461.75 20.55Q465.00 19.50 469.40 19.50L469.40 19.50Q476.40 19.50 480.70 21.55Q485.00 23.60 485.00 26.30L485.00 26.30Q485.00 27.60 484.35 28.60Q483.70 29.60 482.60 30.10L482.60 30.10Q480.80 28.90 477.50 27.50Q474.20 26.10 469.70 26.10L469.70 26.10Q465.20 26.10 462.55 27.80Q459.90 29.50 459.90 32.60L459.90 32.60Q459.90 34.90 461.40 36.50Q462.90 38.10 466.40 38.90L466.40 38.90L473.30 40.60Q480.10 42.30 483.50 45.65Q486.90 49 486.90 54.70ZM541.90 43.90L541.90 43.90Q541.90 49.50 540.30 54Q538.70 58.50 535.75 61.70Q532.80 64.90 528.60 66.60Q524.40 68.30 519.20 68.30L519.20 68.30Q514 68.30 509.80 66.60Q505.60 64.90 502.60 61.70Q499.60 58.50 498.00 54Q496.40 49.50 496.40 43.90L496.40 43.90Q496.40 38.30 498.05 33.80Q499.70 29.30 502.70 26.10Q505.70 22.90 509.90 21.20Q514.10 19.50 519.20 19.50L519.20 19.50Q524.30 19.50 528.50 21.20Q532.70 22.90 535.65 26.10Q538.60 29.30 540.25 33.80Q541.90 38.30 541.90 43.90ZM519.20 26.10L519.20 26.10Q512.40 26.10 508.50 30.80Q504.60 35.50 504.60 43.90L504.60 43.90Q504.60 52.40 508.45 57.05Q512.30 61.70 519.20 61.70L519.20 61.70Q526.10 61.70 529.90 57Q533.70 52.30 533.70 43.90L533.70 43.90Q533.70 35.50 529.85 30.80Q526 26.10 519.20 26.10ZM554.30 50.10L554.30 21Q554.80 20.80 555.85 20.55Q556.90 20.30 558.10 20.30L558.10 20.30Q562.30 20.30 562.30 24L562.30 24L562.30 49.70Q562.30 56.20 565.70 58.95Q569.10 61.70 575.10 61.70L575.10 61.70Q579.10 61.70 581.90 60.85Q584.70 60 586.30 59.10L586.30 59.10L586.30 21Q586.80 20.80 587.85 20.55Q588.90 20.30 590 20.30L590 20.30Q594.30 20.30 594.30 24L594.30 24L594.30 58.80Q594.30 60.90 593.75 62.15Q593.20 63.40 591.10 64.60L591.10 64.60Q588.80 65.90 584.75 67.10Q580.70 68.30 575 68.30L575 68.30Q565 68.30 559.65 63.90Q554.30 59.50 554.30 50.10L554.30 50.10ZM617.30 29.40L617.30 66.80Q616.80 67 615.80 67.25Q614.80 67.50 613.60 67.50L613.60 67.50Q609.30 67.50 609.30 63.90L609.30 63.90L609.30 30Q609.30 27.70 610.15 26.35Q611 25 613 23.70L613 23.70Q615.60 22 620.05 20.75Q624.50 19.50 630.10 19.50L630.10 19.50Q638.10 19.50 638.10 23.50L638.10 23.50Q638.10 24.50 637.80 25.35Q637.50 26.20 637 26.80L637 26.80Q636 26.60 634.40 26.40Q632.80 26.20 631.20 26.20L631.20 26.20Q626.60 26.20 623.10 27.15Q619.60 28.10 617.30 29.40L617.30 29.40ZM668.90 26.20L668.90 26.20Q665.50 26.20 662.60 27.35Q659.70 28.50 657.60 30.75Q655.50 33 654.30 36.35Q653.10 39.70 653.10 44L653.10 44Q653.10 52.60 657.40 57.15Q661.70 61.70 668.90 61.70L668.90 61.70Q673.10 61.70 675.90 60.55Q678.70 59.40 680.90 57.90L680.90 57.90Q682 58.50 682.70 59.40Q683.40 60.30 683.40 61.60L683.40 61.60Q683.40 63 682.30 64.20Q681.20 65.40 679.25 66.30Q677.30 67.20 674.65 67.75Q672 68.30 668.90 68.30L668.90 68.30Q663.70 68.30 659.30 66.80Q654.90 65.30 651.70 62.30Q648.50 59.30 646.70 54.75Q644.90 50.20 644.90 44L644.90 44Q644.90 37.90 646.80 33.35Q648.70 28.80 651.90 25.70Q655.10 22.60 659.45 21.05Q663.80 19.50 668.70 19.50L668.70 19.50Q671.80 19.50 674.45 20.05Q677.10 20.60 679 21.60Q680.90 22.60 681.95 23.85Q683 25.10 683 26.40L683 26.40Q683 27.60 682.30 28.50Q681.60 29.40 680.50 29.90L680.50 29.90Q678.30 28.40 675.70 27.30Q673.10 26.20 668.90 26.20ZM731.80 44.30L701 48.60Q703.70 61.70 718.20 61.70L718.20 61.70Q722.40 61.70 725.80 60.30Q729.20 58.90 731.20 57.30L731.20 57.30Q733.60 58.70 733.60 61.10L733.60 61.10Q733.60 62.50 732.35 63.80Q731.10 65.10 728.95 66.10Q726.80 67.10 723.95 67.70Q721.10 68.30 717.80 68.30L717.80 68.30Q706.20 68.30 699.45 62Q692.70 55.70 692.70 43.60L692.70 43.60Q692.70 37.90 694.35 33.45Q696 29 698.95 25.90Q701.90 22.80 706 21.15Q710.10 19.50 714.90 19.50L714.90 19.50Q719.40 19.50 723.20 21Q727 22.50 729.75 25.25Q732.50 28 734.05 31.75Q735.60 35.50 735.60 40L735.60 40Q735.60 42.20 734.60 43.15Q733.60 44.10 731.80 44.30L731.80 44.30ZM714.80 26L714.80 26Q708.70 26 704.70 30.25Q700.70 34.50 700.50 42.40L700.50 42.40L728 38.60Q727.50 33.10 724.15 29.55Q720.80 26 714.80 26ZM779.80 54.70L779.80 54.70Q779.80 61.10 775.10 64.70Q770.40 68.30 761.50 68.30L761.50 68.30Q757.70 68.30 754.50 67.65Q751.30 67 749.05 65.95Q746.80 64.90 745.55 63.55Q744.30 62.20 744.30 60.80L744.30 60.80Q744.30 59.60 744.95 58.50Q745.60 57.40 746.90 56.60L746.90 56.60Q749.60 58.60 753.20 60.15Q756.80 61.70 761.40 61.70L761.40 61.70Q771.80 61.70 771.80 54.70L771.80 54.70Q771.80 49 764.90 47.30L764.90 47.30L756.60 45.10Q750.50 43.50 747.70 40.45Q744.90 37.40 744.90 32.60L744.90 32.60Q744.90 30 745.95 27.60Q747.00 25.20 749.20 23.40Q751.40 21.60 754.65 20.55Q757.90 19.50 762.30 19.50L762.30 19.50Q769.30 19.50 773.60 21.55Q777.90 23.60 777.90 26.30L777.90 26.30Q777.90 27.60 777.25 28.60Q776.60 29.60 775.50 30.10L775.50 30.10Q773.70 28.90 770.40 27.50Q767.10 26.10 762.60 26.10L762.60 26.10Q758.10 26.10 755.45 27.80Q752.80 29.50 752.80 32.60L752.80 32.60Q752.80 34.90 754.30 36.50Q755.80 38.10 759.30 38.90L759.30 38.90L766.20 40.60Q773.00 42.30 776.40 45.65Q779.80 49 779.80 54.70Z"></path></svg>